<svg xmlns="http://www.w3.org/2000/svg" viewBox="0 0 24 18.63"><defs><style>.cls-1{fill:#cc2e50;}.cls-1,.cls-2{fill-rule:evenodd;}.cls-2{fill:#e23e57;}.cls-3{fill:#fff;}</style></defs><title>iconmonstr-school-21</title><g id="Шар_1" data-name="Шар 1"><path class="cls-1" d="M24,21H21l1-3h1ZM11,16.46l9-4.58V18c-1,2-5.61,3-8.5,3C8.32,21,4.11,20,3,18V11.39Z" transform="translate(0 -2.37)"/><polygon class="cls-2" points="23 15.24 22 15.24 22 7.98 11.08 13.54 0 6.54 12 1.24 23 7.47 23 15.24"/></g><g id="Шар_2" data-name="Шар 2"><path class="cls-3" d="M21,8.52l-.06,1.65L14.89,13,15,11.26l4.26-2L15.13,7l.07-1.72ZM8,11.07,3.94,8.68l4.3-1.92L8.34,5,2.25,7.75,2.15,9.4l5.74,3.4Zm.48,3.5,1.33.9,3.89-13h0l-1.54-.09Zm1.53,1,0,0" transform="translate(0 -2.37)"/></g></svg>